<svg width="101" height="206" viewBox="0 0 101 206" fill="none" xmlns="http://www.w3.org/2000/svg">
<path fill-rule="evenodd" clip-rule="evenodd" d="M11.4026 0.451185L8.85947 7.47823L4.20623 14.143L4.05539 25.3675L3.84128 33.4553C4.22213 33.4724 4.74579 33.5411 5.21304 33.7786C5.73564 34.0444 6.19683 34.5329 6.26849 35.3203C6.33435 36.044 6.05846 36.9153 5.43219 37.9705C4.24703 39.9653 4.48307 40.671 4.59629 40.8466C4.66085 40.9467 4.76083 41.0106 4.87538 41.0506C4.93098 41.0701 4.98119 41.0805 5.0155 41.0858C5.03222 41.0884 5.04387 41.0896 5.04888 41.09C5.04886 41.09 5.04891 41.09 5.04888 41.09L5.70601 41.1104L5.67786 41.778C5.25078 51.9062 5.1148 65.3403 5.08575 76.2487C5.07122 81.7015 5.08342 86.5208 5.09924 89.9768C5.10716 91.7048 5.11598 93.0919 5.12282 94.0469C5.12624 94.5244 5.12917 94.8939 5.13124 95.1439L5.13452 95.524C5.13452 95.5243 5.13452 95.5244 4.4766 95.5305L5.13452 95.524L5.13495 95.5701L3.81501 105.783L3.14887 113.578L6.26138 116.078L5.26082 123.603L1.36381 129.129C1.37337 129.218 1.38522 129.329 1.39907 129.463C1.43861 129.845 1.49446 130.407 1.55997 131.127C1.69098 132.566 1.86065 134.639 2.01572 137.177C2.32578 142.251 2.5778 149.189 2.3445 156.638C2.11346 164.013 2.72999 168.951 3.39467 172.028C3.72699 173.567 4.07136 174.641 4.32793 175.322C4.45622 175.662 4.5626 175.904 4.63462 176.057C4.67064 176.134 4.69807 176.188 4.71537 176.222C4.72402 176.238 4.73013 176.25 4.73352 176.256L4.73531 176.259L4.73602 176.26L4.73646 176.261L4.82312 176.412V188.059L5.50697 194.916C6.07644 196.192 7.23288 197.442 8.72971 198.615C10.2514 199.807 12.0686 200.876 13.8281 201.774C15.5849 202.67 17.268 203.388 18.513 203.882C19.135 204.128 19.6464 204.319 20.0013 204.447C20.0895 204.479 20.168 204.507 20.2361 204.531C24.2438 201.656 26.6695 199.781 28.0943 198.623C28.8227 198.031 29.2881 197.628 29.5686 197.375C29.6474 197.304 29.7114 197.245 29.7625 197.198L29.7677 197.109C29.7808 196.887 29.7995 196.569 29.8225 196.184C29.8686 195.414 29.9315 194.374 29.9993 193.294C30.1338 191.151 30.2899 188.811 30.3698 188.165C30.3698 188.165 30.3698 188.165 30.3698 188.165C30.4532 187.488 30.9134 185.609 31.3333 183.962C31.5469 183.124 31.7556 182.326 31.9109 181.737C31.9885 181.443 32.0529 181.201 32.0978 181.032L32.1569 180.811L32.1512 180.854L32.8036 180.94C33.4389 181.112 33.4389 181.112 33.4389 181.112L33.4386 181.113L33.369 181.373C33.3243 181.541 33.2603 181.782 33.183 182.075C33.0283 182.662 32.8206 183.456 32.6081 184.289C32.1761 185.984 31.7459 187.757 31.6757 188.327C31.6021 188.922 31.4489 191.207 31.3126 193.377C31.2449 194.455 31.1821 195.494 31.1361 196.263C31.1131 196.648 31.0944 196.965 31.0814 197.187L31.0611 197.532L31.047 197.775L30.8799 197.951L30.4043 197.494C30.8799 197.951 30.8798 197.951 30.8796 197.951L30.8792 197.951L30.8782 197.952L30.8759 197.955L30.8694 197.961C30.8642 197.967 30.8572 197.974 30.8482 197.983C30.8387 197.993 30.8269 198.004 30.8127 198.018C30.8004 198.03 30.7864 198.044 30.7704 198.059C30.7016 198.126 30.5969 198.224 30.4469 198.359C30.147 198.629 29.6643 199.047 28.9222 199.65C27.4384 200.856 24.9115 202.807 20.724 205.805L20.4515 206L20.134 205.894L20.1698 205.786C20.1338 205.894 20.1341 205.894 20.134 205.894L20.133 205.893L20.1308 205.893L20.1229 205.89L20.0932 205.88C20.0673 205.871 20.0294 205.858 19.9802 205.841C19.8819 205.807 19.7383 205.756 19.5554 205.69C19.1894 205.558 18.6654 205.363 18.0295 205.11C16.7586 204.606 15.0357 203.872 13.2319 202.952C11.4309 202.033 9.53281 200.92 7.92015 199.657C6.31772 198.401 4.93969 196.952 4.25728 195.344L4.21792 195.251L3.50722 188.125V176.751C3.48885 176.714 3.4679 176.671 3.4446 176.621C3.35748 176.436 3.23755 176.162 3.09718 175.789C2.81642 175.044 2.45403 173.908 2.10866 172.308C1.41796 169.11 0.795338 164.063 1.02925 156.596C1.2609 149.2 1.01069 142.305 0.702284 137.258C0.548117 134.735 0.379497 132.675 0.249522 131.247C0.184537 130.533 0.12922 129.977 0.0902133 129.6C0.0707101 129.411 0.0552849 129.268 0.0447682 129.171C0.0395098 129.123 0.0354786 129.087 0.0327784 129.063L0.0297393 129.036L0.028817 129.028C0.0288135 129.028 0.0287747 129.027 0.235984 129.003L0.028817 129.028L0 128.776L3.99942 123.106L4.85867 116.644L1.77767 114.168L2.50637 105.642L3.81826 95.4908L3.81538 95.1549C3.81331 94.9044 3.81038 94.5344 3.80695 94.0564C3.8001 93.1003 3.79127 91.7121 3.78336 89.9829C3.76752 86.5244 3.75531 81.7019 3.76985 76.2452C3.7984 65.5258 3.93014 52.3496 4.34086 42.2597C4.06703 42.1473 3.73435 41.9409 3.49169 41.5646C2.92831 40.6909 3.08775 39.3376 4.30192 37.294C4.87517 36.328 4.98635 35.7516 4.95805 35.4406C4.93555 35.1933 4.82131 35.0604 4.61852 34.9573C4.3813 34.8367 4.05569 34.7844 3.74581 34.7737C3.59856 34.7686 3.47006 34.7734 3.37944 34.7793C3.33442 34.7822 3.29953 34.7854 3.27724 34.7877C3.26612 34.7888 3.25821 34.7897 3.25381 34.7903L3.25159 34.7905L3.25106 34.7906L3.25004 34.7907L2.48687 34.8923L2.73973 25.3411L2.89592 13.7181L7.68209 6.86289L10.1658 0L11.4026 0.451185ZM34.5514 172.614L33.4503 181.069L33.4389 181.112L32.8036 180.94L32.3027 180.804C32.1683 180.768 32.1683 180.768 32.1683 180.768L32.1569 180.811L33.2756 172.22L33.3266 172.119C34.1239 170.542 34.6743 168.105 35.0352 165.268C35.3938 162.45 35.5575 159.305 35.6154 156.358C35.6732 153.413 35.6252 150.675 35.5627 148.673C35.5314 147.673 35.4965 146.857 35.4695 146.291C35.456 146.009 35.4444 145.789 35.4363 145.64C35.4339 145.596 35.4318 145.559 35.43 145.527L35.4268 145.471L35.4243 145.428L35.4237 145.417L35.4235 145.415L35.4235 145.414C35.4235 145.414 35.4235 145.414 36.0802 145.374L36.6865 145.631C36.7064 145.583 36.7262 145.535 36.7458 145.487C36.7471 145.511 36.7486 145.538 36.7502 145.567C36.7585 145.719 36.7702 145.942 36.7839 146.228C36.8112 146.8 36.8464 147.623 36.8779 148.632C36.9409 150.649 36.9894 153.41 36.931 156.384C36.8727 159.356 36.7074 162.552 36.3405 165.436C35.983 168.246 35.4264 170.827 34.5514 172.614ZM39.0077 134.449C39.0077 134.449 39.0077 134.449 38.3523 134.391L39.0063 134.463L39.0057 134.471L39 134.533C38.995 134.587 38.9874 134.666 38.9772 134.767C38.9567 134.971 38.9257 135.265 38.8834 135.63C38.7987 136.359 38.6685 137.372 38.486 138.511C38.1319 140.719 37.5726 143.454 36.7458 145.487C36.7437 145.449 36.7419 145.418 36.7405 145.394L36.7379 145.349L36.737 145.335L36.7369 145.334C36.7369 145.334 36.7369 145.334 36.0802 145.374L35.4235 145.414L35.4141 145.26L35.4739 145.117C36.2681 143.227 36.8266 140.548 37.1868 138.301C37.3656 137.186 37.4933 136.192 37.5763 135.477C37.6178 135.119 37.6481 134.832 37.6679 134.635C37.6778 134.536 37.6851 134.46 37.6899 134.409L37.6953 134.351L37.6966 134.337L37.6969 134.333L37.6969 134.333L37.6976 134.325L39.1329 121.237C39.1362 121.263 39.1395 121.289 39.1428 121.316L39.7954 121.232L39.1414 121.159L39.1329 121.237C38.6211 117.128 39.0954 113.374 39.6964 110.647C39.9991 109.274 40.335 108.156 40.5964 107.38C40.727 106.991 40.8392 106.688 40.9194 106.479C40.9595 106.375 40.9917 106.295 41.0142 106.24C41.0146 106.239 41.015 106.238 41.0154 106.237L41.0037 106.321L41.6553 106.413L42.2595 106.674L42.2585 106.676L42.2535 106.688C42.2489 106.699 42.2416 106.717 42.2319 106.74C42.2126 106.788 42.1836 106.86 42.1467 106.956C42.0729 107.148 41.9672 107.433 41.8431 107.802C41.5946 108.541 41.2723 109.612 40.9812 110.933C40.3984 113.577 39.945 117.202 40.4481 121.148L40.458 121.226L39.0077 134.449ZM42.2595 106.674C42.2594 106.674 42.2595 106.674 41.6553 106.413C41.051 106.151 41.0509 106.151 41.0509 106.152L41.0499 106.154L41.0478 106.159L41.0405 106.176C41.0345 106.19 41.0261 106.211 41.0154 106.237L45.7051 72.6443L45.7109 72.6184L46.353 72.7623C46.9952 72.9063 46.9952 72.9061 46.9953 72.9059L46.9955 72.9047L47.0009 72.8803L42.2945 106.592L42.2595 106.674ZM53.6227 43.6737C53.4862 44.2407 53.3272 44.9127 53.1501 45.6692C52.4917 48.4823 51.5885 52.446 50.6765 56.4819C49.7645 60.5174 48.8442 64.6235 48.1518 67.7208C47.8057 69.2695 47.5165 70.5659 47.3139 71.4751C47.2125 71.9297 47.1329 72.2875 47.0785 72.5317L47.0009 72.8803L47.0046 72.854L46.353 72.7623C45.7109 72.6184 45.7108 72.6187 45.7109 72.6184L45.7112 72.6169L45.7943 72.2435C45.8487 71.9993 45.9284 71.6413 46.0297 71.1866C46.2324 70.2772 46.5216 68.9805 46.8679 67.4315C47.5604 64.3337 48.4809 60.2265 49.3932 56.1896C50.3053 52.1532 51.2095 48.1854 51.8691 45.367C52.1986 43.959 52.4682 42.8331 52.6475 42.1284C52.7353 41.7833 52.8067 41.5178 52.8547 41.3717C52.8662 41.3368 52.8832 41.2873 52.9045 41.2398C52.9123 41.2225 52.9377 41.1659 52.9818 41.1053C53.0006 41.0795 53.057 41.0042 53.1553 40.9394C53.2633 40.8683 53.5124 40.7598 53.7963 40.8923C54.0272 41.0001 54.1108 41.196 54.1316 41.248C54.1607 41.3208 54.1704 41.3827 54.1741 41.4097C54.1821 41.4681 54.1811 41.5174 54.1806 41.5381C54.1793 41.5872 54.1741 41.6379 54.1692 41.6784C54.1202 42.092 54.2156 42.3446 54.3392 42.5149C54.4742 42.7009 54.6884 42.8499 54.9605 42.9626C55.2305 43.0744 55.5189 43.1343 55.7487 43.1651C55.8615 43.1801 55.9552 43.1875 56.0188 43.1912C56.0505 43.193 56.0745 43.1938 56.0892 43.1942L56.104 43.1945L56.1039 43.8551C55.4472 43.8959 55.4472 43.8959 55.4472 43.896L55.4473 43.8977L55.4568 44.0545C55.4611 44.1243 55.4666 44.216 55.4732 44.3271C55.4757 44.3691 55.4784 44.4139 55.4812 44.4612C55.1948 44.4176 54.8274 44.3366 54.4586 44.1839C54.1817 44.0692 53.8859 43.9064 53.6227 43.6737ZM53.4941 112.549L53.4907 112.48C53.488 112.425 53.4841 112.343 53.479 112.236C53.4688 112.023 53.4541 111.707 53.4358 111.301C53.3994 110.488 53.3489 109.31 53.2928 107.85C53.1806 104.93 53.046 100.878 52.9562 96.3523C52.7769 87.3113 52.7758 76.3459 53.497 68.7406L53.4989 68.7197L53.5023 68.6989L53.5328 68.7037C53.5023 68.6988 53.5022 68.6989 53.5023 68.6989L53.5023 68.6982L53.5026 68.6964L53.5932 68.1292C53.6513 67.7661 53.7344 67.2466 53.835 66.6204C54.036 65.3682 54.3066 63.6895 54.5844 61.984C54.8622 60.2787 55.1474 58.5455 55.3778 57.1847C55.6036 55.8513 55.7859 54.8175 55.8552 54.5631C55.8537 54.5684 55.8537 54.5683 55.8547 54.5613C55.8566 54.5476 55.8621 54.5073 55.8674 54.4289C55.8745 54.3249 55.8796 54.1864 55.8821 54.0143C55.8873 53.671 55.8824 53.219 55.8699 52.6922C55.8448 51.64 55.7896 50.3127 55.7269 49.0076C55.6642 47.7033 55.5943 46.4253 55.54 45.473C55.517 45.0695 55.4968 44.7247 55.4812 44.4612C55.5135 44.4662 55.5449 44.4706 55.575 44.4747C55.7258 44.4948 55.8531 44.505 55.9445 44.5102C55.9904 44.5128 56.0276 44.5142 56.0546 44.5149C56.0681 44.5153 56.0791 44.5154 56.0873 44.5156L56.0977 44.5157L56.1013 44.5157L56.1027 44.5157H56.1033C56.1036 44.5157 56.1039 44.5157 56.1039 43.8551C56.7606 43.8143 56.7606 43.8143 56.7606 43.8144L56.7675 43.9277C56.7699 43.9667 56.7728 44.0152 56.7763 44.0727C56.7794 44.1242 56.7829 44.1828 56.7868 44.2481C56.8033 44.5245 56.8265 44.9201 56.8538 45.3975C56.9082 46.3521 56.9783 47.6344 57.0412 48.9439C57.1041 50.2524 57.1599 51.5923 57.1854 52.6606C57.1981 53.194 57.2034 53.6657 57.1979 54.0342C57.1951 54.2181 57.1896 54.3826 57.1802 54.5194C57.1719 54.6415 57.1579 54.7887 57.1246 54.9112C57.0775 55.084 56.9095 56.022 56.6751 57.4061C56.4454 58.7628 56.1607 60.4927 55.883 62.1972C55.6054 63.9014 55.3351 65.579 55.1341 66.8307C55.0336 67.4565 54.9505 67.9758 54.8925 68.3386L54.8049 68.8868C54.8056 68.8798 54.8063 68.8728 54.8069 68.8658L54.1519 68.8032C54.8016 68.9076 54.8016 68.9075 54.8017 68.9074L54.8017 68.907L54.802 68.9052L54.8049 68.8868C54.0937 76.4082 54.0928 87.2941 54.2719 96.326C54.3614 100.841 54.4958 104.885 54.6077 107.799C54.6637 109.256 54.714 110.431 54.7504 111.241C54.7686 111.647 54.7833 111.961 54.7934 112.173C54.7984 112.279 54.8024 112.36 54.805 112.415L54.809 112.496C54.8091 112.496 54.8091 112.496 54.1519 112.53C53.494 112.535 53.494 112.535 53.494 112.535L53.494 112.536L53.4941 112.549ZM53.5241 146.932C53.5235 146.935 53.5236 146.934 53.5242 146.928C53.5255 146.915 53.5291 146.881 53.5333 146.816C53.5391 146.728 53.5447 146.608 53.5501 146.457C53.5608 146.155 53.5699 145.742 53.5776 145.232C53.593 144.212 53.6022 142.816 53.6069 141.171C53.6161 137.881 53.6067 133.603 53.5899 129.36C53.5732 125.117 53.5492 120.911 53.5294 117.765C53.5195 116.192 53.5107 114.885 53.5043 113.97C53.5011 113.513 53.4985 113.154 53.4968 112.909L53.4941 112.549L53.4948 112.561L53.4948 112.562C53.4948 112.563 53.4948 112.563 54.1519 112.53C54.5674 112.526 54.7205 112.525 54.777 112.525C54.8099 112.525 54.8099 112.525 54.8099 112.525L54.8099 112.526L54.8126 112.9C54.8144 113.144 54.817 113.504 54.8202 113.961C54.8265 114.876 54.8354 116.184 54.8453 117.757C54.8651 120.903 54.8891 125.111 54.9058 129.355C54.9226 133.599 54.932 137.88 54.9228 141.175C54.9181 142.821 54.9088 144.224 54.8934 145.252C54.8856 145.765 54.8763 146.189 54.8651 146.504C54.855 146.789 54.8422 147.052 54.8147 147.19L54.8146 147.191C54.8147 147.19 54.8146 147.19 54.8145 147.192C54.8137 147.2 54.8092 147.245 54.8126 147.344C54.8163 147.45 54.8277 147.588 54.8476 147.758C54.8874 148.097 54.9575 148.531 55.0506 149.033C55.2365 150.034 55.5071 151.269 55.7868 152.475C56.0661 153.68 56.3529 154.849 56.5699 155.717C56.6784 156.152 56.7694 156.51 56.8333 156.76C56.8652 156.885 56.8903 156.983 56.9074 157.05L56.9332 157.149L56.9335 157.15C56.9335 157.15 56.9336 157.151 56.2969 157.317L55.6389 157.316L55.6387 157.401L55.6334 157.38C55.6161 157.313 55.5907 157.214 55.5586 157.088C55.4943 156.836 55.4027 156.476 55.2936 156.039C55.0754 155.166 54.7868 153.989 54.5052 152.775C54.224 151.562 53.9482 150.305 53.757 149.275C53.6615 148.76 53.5855 148.293 53.5407 147.913C53.5001 147.566 53.4718 147.196 53.5241 146.932ZM55.5995 173.07L55.6387 157.401L55.6597 157.482L55.66 157.483C55.6601 157.483 55.6602 157.484 56.2969 157.317L56.9335 157.15L56.955 157.234L56.9153 173.115L56.3108 182.381C56.269 182.329 56.2404 182.289 56.2232 182.264C56.2131 182.25 56.207 182.24 56.2044 182.236L56.2056 182.238L56.2063 182.239C56.2066 182.24 56.207 182.24 55.6389 182.574L55.0708 182.907L54.9692 182.732L55.5995 173.07ZM84.4704 170.41V181.516L78.2281 188.115L77.9681 188.13C68.4968 188.678 62.817 187.45 59.4763 186.039C57.8046 185.333 56.7206 184.583 56.0441 183.989C55.7062 183.693 55.4714 183.437 55.3166 183.248C55.2392 183.153 55.182 183.075 55.142 183.017C55.122 182.988 55.1063 182.964 55.0945 182.946C55.0887 182.937 55.0838 182.929 55.0798 182.922L55.0746 182.913L55.0726 182.91L55.0716 182.908C55.0712 182.908 55.0708 182.907 55.6389 182.574L56.2955 182.617L56.3108 182.381C56.3181 182.39 56.3259 182.4 56.334 182.41C56.4431 182.543 56.6273 182.747 56.9098 182.994C57.4741 183.489 58.4364 184.167 59.9864 184.821C63.0604 186.119 68.4538 187.329 77.6329 186.826L77.4532 187.016L77.9303 187.471L77.8925 186.811C77.8056 186.816 77.7191 186.821 77.6329 186.826L83.1544 180.989V181.253H83.8124L83.3353 180.798L83.1544 180.989V170.287L87.4372 147.272L87.4358 147.324L88.0935 147.342L87.4467 147.221L87.4372 147.272L87.8756 131.452L88.96 124.761L88.9583 124.799L89.6155 124.83L88.9661 124.724L88.96 124.761L90.4297 92.5805L90.4375 92.5372L91.085 92.6548C91.7324 92.7723 91.7325 92.7721 91.7325 92.7717L91.7402 92.7289L90.2711 124.898L89.1886 131.577L89.1898 131.533L88.5321 131.515L89.1815 131.621L89.1886 131.577L88.7497 147.413L84.4704 170.41ZM84.4704 170.41V170.348H83.8124L84.4592 170.47L84.4704 170.41ZM100.212 33.2435C100.35 34.1279 100.311 35.6683 100.165 37.612C100.01 39.6702 99.7267 42.2657 99.3561 45.198C98.6148 51.0642 97.5203 58.3066 96.3912 65.352C95.262 72.3986 94.0973 79.2535 93.215 84.3463C92.7739 86.8929 92.4033 88.9991 92.1429 90.4688C92.0128 91.2037 91.9101 91.7794 91.8401 92.1715C91.8186 92.2919 91.8001 92.3949 91.7849 92.48L91.7402 92.7289L91.7422 92.685L91.085 92.6548C90.4375 92.5372 90.4375 92.537 90.4376 92.5366L90.4379 92.5348L90.4649 92.3846C90.483 92.2837 90.5099 92.1339 90.5449 91.9382C90.6148 91.5467 90.7173 90.9716 90.8473 90.2375C91.1074 88.7692 91.4777 86.6646 91.9186 84.1199C92.8003 79.0304 93.964 72.1814 95.092 65.1421C96.2203 58.1016 97.3121 50.8761 98.0507 45.0317C98.4201 42.1088 98.7002 39.5384 98.8527 37.5124C99.0076 35.4551 99.023 34.041 98.8994 33.3761L98.8797 33.27L98.8946 33.1632L98.9259 33.1676C98.8946 33.1632 98.8946 33.1632 98.8946 33.1632L98.8947 33.1627L98.895 33.1605L98.8963 33.1508L98.9017 33.1112C98.9065 33.0758 98.9136 33.0227 98.9227 32.9527C98.9408 32.8128 98.967 32.6056 98.9989 32.3381C99.0625 31.8032 99.1488 31.0278 99.2386 30.0692C99.4184 28.1512 99.612 25.5034 99.6681 22.583C99.7242 19.6609 99.6423 16.4772 99.2744 13.4841C98.9263 10.6521 98.3265 8.02968 97.3705 5.96828H97.7829V5.30769L97.1952 5.60464C97.2549 5.7238 97.3133 5.84503 97.3705 5.96828H92.9404V4.6471H98.1884L98.3706 5.01074C99.527 7.31784 100.203 10.2549 100.58 13.3223C100.958 16.398 101.041 19.6487 100.984 22.6085C100.927 25.5701 100.731 28.2519 100.549 30.1929C100.458 31.1638 100.37 31.9503 100.305 32.495C100.273 32.7673 100.246 32.9792 100.228 33.1235C100.221 33.1709 100.216 33.211 100.212 33.2435ZM100.212 33.2435C100.206 33.2057 100.2 33.1691 100.193 33.1337L99.5462 33.2549C100.198 33.3466 100.198 33.3464 100.198 33.3461L100.198 33.3453L100.198 33.3423L100.2 33.3312L100.206 33.2884C100.207 33.2755 100.209 33.2606 100.212 33.2435ZM55.5995 173.07L55.5994 173.09L56.2574 173.092L55.6008 173.049L55.5995 173.07ZM53.5241 146.932C53.5241 146.932 53.5242 146.932 53.5243 146.931L54.1695 147.061L53.5244 146.931C53.5243 146.931 53.5242 146.932 53.5241 146.932ZM54.1519 112.53L54.8099 112.525L54.8098 112.51L54.809 112.496L54.1519 112.53ZM53.6227 43.6737C53.7402 43.1856 53.8411 42.7751 53.9224 42.4554C54.0122 42.1026 54.0729 41.8814 54.1044 41.7856C54.1128 41.7601 54.1124 41.7645 54.1042 41.7827L54.104 41.7831C54.1016 41.7886 54.0819 41.8331 54.044 41.8852C54.0277 41.9076 53.9735 41.9806 53.8772 42.0441C53.7712 42.1139 53.5239 42.2221 53.2415 42.0903C53.0122 41.9833 52.9299 41.789 52.9103 41.7399C52.8823 41.6698 52.8734 41.6117 52.8704 41.5896C52.8666 41.5616 52.8654 41.5379 52.8651 41.5224C52.8649 41.511 52.8651 41.504 52.8652 41.5029C52.8655 41.4899 52.8661 41.4922 52.8626 41.5221C52.7779 42.236 52.939 42.829 53.2756 43.2928C53.3803 43.4371 53.4978 43.5632 53.6227 43.6737ZM56.1039 43.8551C56.1039 43.1945 56.1038 43.1945 56.104 43.1945L56.1048 43.1945L56.1054 43.1945L56.7223 43.1945L56.7606 43.8144L56.1039 43.8551ZM34.5514 172.614L34.5657 172.504L33.9133 172.418L34.5001 172.717C34.5173 172.683 34.5344 172.649 34.5514 172.614Z" fill="black"/>
</svg>
