<svg width="96" height="56" viewBox="0 0 96 56" fill="none" xmlns="http://www.w3.org/2000/svg">
<path fill-rule="evenodd" clip-rule="evenodd" d="M26.4674 4.78238L26.4664 4.78324L26.466 4.78351L26.3581 4.87073L23.6395 5.59246C23.6354 5.60738 23.6312 5.62272 23.6269 5.63847C23.5547 5.90157 23.4514 6.28061 23.327 6.7438C23.078 7.67039 22.7446 8.93269 22.4065 10.2766C21.7219 12.9982 21.045 15.954 20.9725 17.1964C20.946 17.6513 20.7764 18.1396 20.5427 18.6228C20.3047 19.1148 19.9769 19.6481 19.5882 20.2037C18.8106 21.3151 17.7562 22.562 16.5926 23.8146C14.2645 26.3208 11.4501 28.9026 9.40918 30.5512C7.5229 32.0749 6.41397 34.2 5.77637 35.9829C5.45929 36.8696 5.26346 37.6585 5.14723 38.2241C5.08918 38.5065 5.05119 38.7323 5.02792 38.8855C5.01629 38.962 5.00835 39.0204 5.00343 39.0585C5.00097 39.0776 4.99927 39.0916 4.99824 39.1003L4.9972 39.1094L4.99709 39.1103L4.99703 39.1108L4.95792 39.4734L4.6296 39.6329C2.37752 40.7268 1.57904 42.9598 1.37487 45.0783C1.2738 46.1271 1.32408 47.1084 1.40086 47.8305C1.43912 48.1903 1.48364 48.4829 1.51819 48.6835C1.52688 48.734 1.53493 48.7786 1.54208 48.817C6.82913 54.5373 13.0358 55.1965 17.9829 54.4115C20.4828 54.0149 22.6534 53.2487 24.2006 52.58C24.9732 52.246 25.5876 51.9376 26.0067 51.714C26.2162 51.6022 26.3767 51.5117 26.4835 51.4499C26.5369 51.419 26.5769 51.3953 26.6028 51.3798C26.6103 51.3753 26.6167 51.3715 26.6218 51.3684L34.435 45.8036L35.8726 35.5831H42.1222L48.6319 30.8039L47.8835 20.5902V20.4517H46.5264L46.4874 19.8336C46.1038 13.7514 45.1821 9.7333 44.3681 7.25193C44.3436 7.17745 44.3193 7.10436 44.2951 7.03263C44.1584 8.23167 43.7965 9.14916 43.3601 9.84102C42.9627 10.4711 42.5168 10.8922 42.1619 11.1589C41.9846 11.2921 41.8299 11.3869 41.7148 11.4504C41.6572 11.4821 41.6093 11.5061 41.5733 11.5232C41.5553 11.5318 41.5402 11.5386 41.5284 11.5438L41.513 11.5505L41.5072 11.553L41.5047 11.554L41.5036 11.5544C41.5031 11.5546 41.5026 11.5548 41.2527 10.9445L41.5026 11.5548L40.9549 11.7795L40.673 11.2585C37.181 4.8029 33.5688 3.33706 30.9725 3.31938C29.6421 3.31033 28.5089 3.67887 27.7033 4.05488C27.3016 4.24235 26.9856 4.42968 26.7728 4.56807C26.6666 4.63716 26.5865 4.69375 26.5348 4.73162C26.5089 4.75055 26.4902 4.76477 26.4789 4.77349L26.4674 4.78238ZM41.4884 10.0107C41.7159 9.82177 41.9911 9.54003 42.2453 9.13687C42.8359 8.20055 43.3697 6.51849 42.7777 3.62771L43.9555 3.10604L43.4234 3.49528C43.9555 3.10604 43.9558 3.1064 43.9561 3.10678L43.9581 3.10954L43.9617 3.11453L43.9719 3.12906C43.9801 3.14079 43.991 3.1566 44.0044 3.17663C44.0312 3.21669 44.0681 3.27362 44.1138 3.34841C44.2053 3.49801 44.3321 3.71902 44.4842 4.01955C44.7884 4.62067 45.1937 5.53938 45.6205 6.84045C46.4453 9.35473 47.3501 13.2959 47.7618 19.1325H49.2017V20.5419L50 31.4356L42.5539 36.9023H37.0183L35.6613 46.5493L27.3497 52.4692L27.3316 52.4804L26.9849 51.9194C27.3316 52.4804 27.3313 52.4806 27.3309 52.4808L27.3299 52.4814L27.3268 52.4833L27.3166 52.4896C27.308 52.4948 27.2957 52.5023 27.2799 52.5117C27.2482 52.5307 27.2024 52.5578 27.1429 52.5922C27.024 52.661 26.8504 52.7588 26.627 52.878C26.1803 53.1164 25.5333 53.441 24.7233 53.7911C23.1056 54.4903 20.8268 55.296 18.1894 55.7145C12.9002 56.5537 6.13825 55.8332 0.444398 49.571L0.326982 49.4419L0.288781 49.2715L0.93191 49.1271C0.288781 49.2715 0.288724 49.2713 0.288661 49.271L0.288503 49.2703L0.288072 49.2683L0.286762 49.2624L0.282438 49.2423C0.278831 49.2253 0.273818 49.2012 0.267661 49.1703C0.255351 49.1087 0.238455 49.02 0.219088 48.9075C0.18038 48.6827 0.131665 48.3618 0.09001 47.9701C0.00694774 47.1889 -0.0493246 46.1142 0.0627159 44.9517C0.276357 42.7349 1.12346 40.0492 3.73659 38.6103C3.76311 38.4433 3.80172 38.2225 3.856 37.9583C3.982 37.3453 4.19318 36.4948 4.53522 35.5384C5.21587 33.6351 6.43364 31.2595 8.58119 29.5247C10.5741 27.9148 13.3425 25.3759 15.6271 22.9164C16.7699 21.6861 17.7794 20.4889 18.5083 19.4471C18.8729 18.926 19.159 18.4555 19.3562 18.0479C19.5577 17.6314 19.6446 17.3244 19.6565 17.1196C19.7379 15.7236 20.4561 12.6264 21.1282 9.95456C21.4685 8.60177 21.8038 7.33227 22.054 6.40123C22.1791 5.9356 22.283 5.55438 22.3556 5.28941C22.3919 5.15691 22.4205 5.05348 22.4399 4.98307L22.4698 4.8754C22.4698 4.87531 22.4699 4.8749 23.1048 5.05197L22.4699 4.8749L22.5712 4.51122L25.7592 3.66488C25.8289 3.6139 25.9281 3.54411 26.0546 3.46186C26.3106 3.29539 26.6804 3.07665 27.1461 2.85929C28.0753 2.42563 29.4039 1.98946 30.9814 2.00019C34.0998 2.02142 37.9388 3.77827 41.4884 10.0107Z" fill="white"/>
<path fill-rule="evenodd" clip-rule="evenodd" d="M78.0839 1.3836C77.0813 1.54111 75.4641 2.07987 73.1722 3.67797C71.0973 5.12416 70.4223 7.98463 70.3291 10.6983C70.2834 12.0282 70.3798 13.2641 70.4884 14.1696C70.5426 14.6214 70.5995 14.9886 70.6426 15.2414C70.6642 15.3677 70.6822 15.4653 70.6947 15.5303C70.7009 15.5629 70.7057 15.5873 70.7089 15.6031L70.7124 15.6202L70.7132 15.6239L70.7133 15.6244L70.8426 16.2384L70.2534 16.404C70.2318 16.4101 70.1725 16.4344 70.0872 16.56C69.9992 16.6897 69.9103 16.8902 69.8317 17.1698C69.6745 17.7289 69.5949 18.4702 69.5656 19.241C69.5366 20.0033 69.5577 20.7563 69.5867 21.3219C69.6011 21.6038 69.6173 21.8371 69.6299 21.9993C69.6361 22.0804 69.6415 22.1435 69.6452 22.1859C69.6471 22.2072 69.6486 22.2232 69.6495 22.2336L69.6506 22.2451L69.6509 22.2481L69.661 22.3515L68.3751 28.5216L68.0895 28.6621C66.2092 29.587 65.73 31.3062 65.7474 32.9331C65.756 33.7471 65.8921 34.5071 66.0286 35.0683C66.0964 35.3473 66.1635 35.5735 66.2129 35.728C66.2376 35.8051 66.2577 35.8641 66.2713 35.9027C66.2781 35.922 66.2832 35.9361 66.2864 35.9448L66.2898 35.9542L66.2901 35.9549L66.4332 36.3309L63.9739 39.2012C61.1132 46.5061 62.4087 49.8322 64.059 51.3823C64.9258 52.1965 65.9715 52.6067 66.8236 52.8107C67.2466 52.912 67.613 52.9603 67.8711 52.9831C68 52.9945 68.101 52.9995 68.1678 53.0017C68.2012 53.0028 68.226 53.0032 68.2413 53.0033L68.257 53.0033L68.2586 53.0033L68.2591 53.0033L68.3618 53.0019L68.4608 53.034C78.3638 56.2514 84.932 54.2058 89.0138 51.4345C91.0675 50.0403 92.5126 48.4479 93.4432 47.2056C93.9082 46.5849 94.2435 46.0533 94.4609 45.6803C94.5695 45.4939 94.6486 45.3473 94.6996 45.2492C94.6998 45.2489 94.7 45.2486 94.7001 45.2482L94.3014 34.309L94.3042 34.2711L94.9465 34.322C94.3042 34.2711 94.3042 34.2712 94.3042 34.2711L94.3042 34.2707L94.3043 34.2691L94.3067 34.2371L94.3141 34.136C94.3205 34.0471 94.3297 33.9163 94.3413 33.7491C94.3643 33.4146 94.3962 32.9344 94.4316 32.3527C94.5025 31.1888 94.5875 29.6206 94.6442 28.0004C94.7009 26.3779 94.7287 24.7135 94.6867 23.3538C94.6657 22.6731 94.6275 22.0808 94.569 21.6139C94.5069 21.1181 94.4313 20.8527 94.3812 20.7582C94.1128 20.2528 93.879 19.5022 93.6788 18.7149C93.4746 17.9118 93.2916 17.0129 93.1388 16.1765C92.9857 15.3387 92.8616 14.5561 92.7758 13.9834C92.7429 13.7642 92.7156 13.5754 92.6945 13.4257C92.5457 13.3307 92.421 13.2113 92.3192 13.092C92.1135 12.851 91.947 12.5479 91.8095 12.2369C91.5334 11.6125 91.3183 10.8247 91.154 10.079C90.9881 9.32582 90.867 8.58169 90.7874 8.02841C90.7476 7.75106 90.718 7.52004 90.6982 7.35777C90.6913 7.3012 90.6857 7.25293 90.6812 7.21393C90.2476 6.3212 89.4066 5.50081 88.3033 4.76667C87.1711 4.01324 85.8215 3.38941 84.5099 2.89151C83.2014 2.39483 81.9502 2.0307 81.0247 1.79065C80.5625 1.67079 80.1831 1.58224 79.9202 1.52387C79.7888 1.49469 79.6866 1.47307 79.6179 1.45886C79.5835 1.45176 79.5576 1.44651 79.5405 1.4431L79.5216 1.43936L79.5173 1.43852L79.5165 1.43836L79.4466 1.42486L79.3929 1.40114C79.3878 1.39938 79.3777 1.39603 79.3625 1.39169C79.3241 1.3807 79.2526 1.3632 79.147 1.349C78.9363 1.32071 78.585 1.30487 78.0839 1.3836ZM79.8079 0.145939C79.7804 0.136326 79.7469 0.125513 79.7075 0.114231C79.6115 0.0867914 79.4805 0.0567133 79.3138 0.0343113C78.9796 -0.0105841 78.5066 -0.0240273 77.8895 0.0729315C76.6555 0.26678 74.8605 0.899196 72.4495 2.58038C69.8259 4.40905 69.1371 7.86628 69.0414 10.6515C68.9926 12.0711 69.0954 13.38 69.2096 14.332C69.2635 14.7812 69.3202 15.153 69.3653 15.4219C69.2343 15.5339 69.1235 15.6644 69.0308 15.8009C68.8323 16.0934 68.6942 16.4449 68.594 16.8013C68.3936 17.5142 68.3089 18.3811 68.2781 19.1891C68.247 20.0057 68.2698 20.8022 68.3 21.3915C68.3151 21.6871 68.3321 21.9324 68.3455 22.1047C68.3508 22.1732 68.3555 22.2303 68.3593 22.2744L67.2459 27.6169C64.9756 28.8862 64.4395 31.1236 64.459 32.9476C64.4691 33.8965 64.6264 34.7642 64.7787 35.3901C64.8425 35.6527 64.9061 35.8753 64.9589 36.0467L62.8624 38.4937L62.8212 38.598C59.821 46.1939 60.9455 50.2529 63.1904 52.3615C64.275 53.3803 65.5505 53.8672 66.5316 54.1021C67.0251 54.2203 67.4535 54.2769 67.7608 54.3041C67.9147 54.3177 68.0391 54.324 68.127 54.3269C68.1403 54.3273 68.1527 54.3277 68.1643 54.328C78.3714 57.6183 85.3167 55.533 89.7234 52.5412C91.9205 51.0495 93.4662 49.3467 94.4637 48.0151C94.9628 47.3489 95.3259 46.774 95.5659 46.3622C95.6859 46.1562 95.7753 45.9908 95.8355 45.875C95.8657 45.817 95.8886 45.7715 95.9044 45.7393C95.9123 45.7233 95.9184 45.7106 95.9228 45.7014L95.9281 45.6903L95.9298 45.6867L95.9304 45.6855C95.9307 45.685 95.9309 45.6845 95.3502 45.3973L95.9309 45.6845L96 45.5365L95.5917 34.3347L95.599 34.234C95.6055 34.1437 95.6149 34.0115 95.6265 33.8427C95.6497 33.5051 95.6818 33.0214 95.7175 32.4356C95.7889 31.2646 95.8746 29.6839 95.9318 28.0481C95.9889 26.4145 96.0179 24.7156 95.9745 23.3117C95.9529 22.6107 95.9129 21.9711 95.8469 21.4444C95.7845 20.9466 95.6893 20.4567 95.5119 20.1225C95.325 19.7705 95.1229 19.1565 94.9253 18.3793C94.7317 17.6179 94.555 16.7524 94.405 15.9315C94.2553 15.112 94.1335 14.3445 94.0492 13.7814C94.007 13.5 93.9743 13.2702 93.9521 13.111C93.941 13.0315 93.9326 12.9696 93.927 12.9278L93.9206 12.8805L93.9187 12.8659L93.9186 12.8653L93.8513 12.3515L93.3705 12.297C93.3582 12.289 93.3303 12.2675 93.2874 12.2173C93.1985 12.1131 93.0937 11.9398 92.9823 11.6879C92.7607 11.1867 92.5684 10.5025 92.4106 9.78588C92.2544 9.07675 92.1388 8.36823 92.062 7.83444C92.0238 7.56826 91.9954 7.34714 91.9767 7.19316C91.9674 7.11621 91.9604 7.05611 91.9559 7.01564L91.9508 6.97003L91.9496 6.95893L91.9493 6.95643L91.9493 6.95595L91.9379 6.84714L91.893 6.74784C91.3266 5.49324 90.2353 4.4733 89.003 3.65332C87.7617 2.82733 86.3161 2.16398 84.9558 1.6476C83.5923 1.13 82.2948 0.75276 81.3396 0.505009C80.8613 0.380974 80.4674 0.289008 80.192 0.227849C80.0543 0.197262 79.9461 0.174359 79.8717 0.158984C79.8465 0.153774 79.8252 0.149428 79.8079 0.145939Z" fill="white"/>
</svg>
