<svg width="109" height="130" viewBox="0 0 109 130" fill="none" xmlns="http://www.w3.org/2000/svg">
<path fill-rule="evenodd" clip-rule="evenodd" d="M46.1684 8.27369C46.1502 8.20849 46.1235 8.11566 46.0881 7.99921C46.016 7.76286 45.9075 7.42841 45.7596 7.0295C45.4646 6.23406 45.0089 5.17054 44.3673 4.1142C43.1061 2.03765 40.9911 -0.217308 37.8135 0.016803C34.9328 0.229043 33.1632 0.951038 32.094 1.67048C31.5604 2.02955 31.2084 2.38333 30.9839 2.66194C30.872 2.8009 30.7925 2.92023 30.7383 3.01095C30.7285 3.02735 30.7195 3.04281 30.7114 3.05727L12.6161 21.2407L12.5871 21.2801L13.1184 21.6679C12.5871 21.2801 12.5869 21.2805 12.5866 21.2809L12.5859 21.2817L12.5845 21.2838L12.5806 21.2892L12.5692 21.3052C12.56 21.3182 12.5478 21.3359 12.5326 21.3585C12.5021 21.4038 12.4599 21.4686 12.4072 21.5545C12.3016 21.7263 12.154 21.9823 11.9746 22.3342C11.6156 23.0381 11.1293 24.1256 10.5971 25.6907C9.5361 28.8111 8.29222 33.8319 7.51264 41.5011L3.26487 54.5599L3.26486 54.6719L3.26478 54.6992C3.26468 54.7237 3.26449 54.7606 3.26411 54.8094C3.26334 54.907 3.2618 55.0523 3.25871 55.2413C3.25252 55.6195 3.24011 56.1726 3.21527 56.8698C3.16556 58.2643 3.06611 60.2335 2.86717 62.529C2.46868 67.1271 1.67341 73.0046 0.0922103 78.1904L0 78.4928L3.29732 83.2645C3.30598 83.3174 3.31693 83.3844 3.33006 83.465C3.36689 83.6911 3.42084 84.0238 3.48926 84.4502C3.62612 85.3029 3.82086 86.5299 4.05231 88.0266C4.51524 91.0203 5.12484 95.0914 5.71173 99.4026C6.29876 103.715 6.86236 108.262 7.23391 112.21C7.60726 116.177 7.78068 119.482 7.60611 121.342L7.59368 121.474L7.63396 121.601L8.26191 121.403C7.63396 121.601 7.63412 121.601 7.63429 121.602L7.63467 121.603L7.63557 121.606L7.63796 121.613C7.63982 121.619 7.6422 121.626 7.64515 121.634C7.65105 121.651 7.6592 121.674 7.66983 121.702C7.69108 121.759 7.72227 121.837 7.76525 121.935C7.85122 122.13 7.98444 122.402 8.17987 122.73C8.57097 123.386 9.2104 124.263 10.2163 125.191C12.2338 127.052 15.6904 129.085 21.4882 129.977L21.635 130L21.7774 129.958L21.5888 129.329C21.7774 129.958 21.7772 129.958 21.7774 129.958L21.7783 129.957L21.7863 129.955L21.8095 129.948C21.8297 129.942 21.8591 129.933 21.8973 129.921C21.9736 129.897 22.0848 129.863 22.2267 129.817C22.5104 129.725 22.9167 129.59 23.4109 129.415C24.3982 129.065 25.7407 128.553 27.1577 127.906C28.5723 127.26 30.0763 126.473 31.3794 125.569C32.6718 124.673 33.8234 123.624 34.4641 122.435L34.5287 122.315L35.9355 105.575C36.0084 105.578 36.0869 105.582 36.171 105.586C36.7372 105.612 37.5531 105.639 38.5569 105.646C40.5635 105.658 43.3271 105.585 46.3528 105.244C52.2541 104.578 59.3281 102.874 63.6307 98.6187C63.6551 98.6193 63.6805 98.6196 63.707 98.6196C64.0025 98.6196 64.458 98.5854 65.1595 98.4657C66.0899 98.307 67.476 97.9939 69.5305 97.394C69.2638 98.0444 69.2067 98.8292 69.4828 99.7468C69.8481 100.961 70.7884 102.387 72.5293 104.089C74.3784 105.897 77.604 107.06 81.2526 107.827C84.9341 108.601 89.1773 108.997 93.1848 109.182C97.1959 109.368 100.99 109.344 103.78 109.274C105.176 109.239 106.321 109.193 107.118 109.155C107.517 109.136 107.829 109.119 108.041 109.107C108.147 109.101 108.229 109.096 108.284 109.093L108.346 109.089L108.363 109.088L108.368 109.088C108.368 109.088 108.368 109.088 108.326 108.433L108.368 109.088L109 109.046L107.277 41.1337L107.229 41.0203L107.229 41.0198L107.229 41.0189L107.226 41.0112C107.223 41.0038 107.218 40.992 107.211 40.9759C107.206 40.9623 107.199 40.9455 107.191 40.9257C107.181 40.8991 107.169 40.8671 107.155 40.8299C107.106 40.7004 107.036 40.509 106.957 40.2674C106.799 39.7832 106.604 39.1018 106.455 38.3155C106.154 36.7213 106.064 34.7941 106.76 33.1978C107.198 32.195 107.376 30.8795 107.42 29.529C107.465 28.1642 107.375 26.6993 107.237 25.3609C107.099 24.0203 106.913 22.7942 106.761 21.9038C106.685 21.4582 106.617 21.0958 106.568 20.8441C106.544 20.7182 106.524 20.62 106.511 20.5528C106.507 20.535 106.504 20.5193 106.501 20.5059L106.495 20.4757L106.491 20.4555L106.49 20.4501L106.489 20.4485L106.489 20.4481C106.489 20.4479 106.489 20.4478 105.845 20.5831L106.489 20.4481L106.447 20.2488L99.3787 13.5294L81.387 7.12729L77.8741 12.7945L76.5242 14.4778L76.3634 19.3254L76.3634 19.3259L76.3634 19.3272C76.3631 19.3309 76.3626 19.3394 76.3614 19.3523C76.3591 19.3782 76.3544 19.4219 76.345 19.4812C76.3263 19.5998 76.2891 19.7797 76.2163 20.0027C76.071 20.4475 75.783 21.0657 75.2104 21.7141C74.075 22.9996 71.7367 24.4942 66.8971 24.872C64.619 25.0487 62.1873 24.1632 59.7738 22.643C57.3681 21.1278 55.0473 19.0239 53.0136 16.8742C50.9829 14.7277 49.2559 12.5542 48.0357 10.9156C47.4261 10.0969 46.9441 9.41325 46.6151 8.93518C46.4506 8.69618 46.3244 8.50867 46.2398 8.38148C46.2112 8.33856 46.1874 8.30252 46.1684 8.27369ZM105.24 20.9155L98.6718 14.6714L81.9478 8.72033L78.9531 13.5515L77.8264 14.9565L77.68 19.3694L77.68 19.3707L77.6799 19.3712L77.6798 19.3738L77.6795 19.3815C77.6793 19.3873 77.6789 19.3945 77.6785 19.4029C77.6779 19.412 77.6772 19.4227 77.6763 19.4348C77.6756 19.445 77.6747 19.4562 77.6736 19.4685C77.6688 19.5221 77.6605 19.5952 77.6463 19.6852C77.6179 19.8651 77.5655 20.1132 77.469 20.4088C77.2755 21.0012 76.9051 21.7819 76.1994 22.5809C74.7781 24.1901 72.0798 25.7837 67 26.1803C64.3184 26.3884 61.5965 25.3437 59.0698 23.7522C56.535 22.1556 54.1286 19.9661 52.055 17.7743C49.9784 15.5793 48.218 13.3631 46.9777 11.6974C46.3571 10.864 45.8656 10.1669 45.5286 9.67721C45.3601 9.43233 45.2301 9.23922 45.1419 9.10677C45.0978 9.04054 45.0642 8.98946 45.0414 8.95465L45.0153 8.91476L45.0066 8.90135L45.0061 8.90052C45.0059 8.90027 45.0058 8.90009 45.5596 8.54496L45.0058 8.90009L44.9478 8.81029L44.9214 8.7072L44.9206 8.70401L44.9168 8.68959C44.9132 8.67618 44.9076 8.65526 44.8998 8.62736C44.8842 8.57153 44.8603 8.48782 44.8275 8.38032C44.762 8.16519 44.6616 7.85559 44.5239 7.48421C44.2476 6.73906 43.8254 5.75704 43.2402 4.79353C42.0479 2.83039 40.3141 1.14845 37.9107 1.32553C35.2103 1.52447 33.6734 2.19133 32.8314 2.75794C32.4094 3.0419 32.1546 3.30544 32.0112 3.48341C31.9393 3.57273 31.8945 3.6415 31.8705 3.68181C31.8588 3.70128 31.852 3.71417 31.8492 3.71961C31.8491 3.71981 31.849 3.72 31.8489 3.72017L31.804 3.82331L13.627 22.0888C13.627 22.0889 13.6271 22.0888 13.627 22.0888C13.6068 22.1189 13.5743 22.1687 13.5308 22.2394C13.4439 22.3809 13.3132 22.6066 13.149 22.9286C12.8206 23.5725 12.3582 24.6017 11.8448 26.1117C10.8177 29.1322 9.58719 34.0747 8.81625 41.7025L8.8092 41.7723L4.58175 54.7685C4.58166 54.7839 4.58154 54.801 4.58139 54.8197C4.58059 54.9208 4.57901 55.0698 4.57585 55.2627C4.56954 55.6485 4.55693 56.2101 4.53176 56.9163C4.48143 58.3285 4.38081 60.3203 4.17961 62.6419C3.78546 67.1899 3.00301 73.0324 1.44412 78.2683L4.54957 82.7623L4.57346 82.9071L3.92353 83.0135C4.57346 82.9071 4.57342 82.9068 4.57346 82.9071L4.58807 82.996C4.59767 83.0545 4.61188 83.1413 4.63037 83.2548C4.66735 83.4818 4.72146 83.8156 4.79006 84.243C4.92726 85.0978 5.12239 86.3274 5.35427 87.8268C5.81799 90.8255 6.42883 94.9048 7.0171 99.2263C7.60524 103.547 8.17151 108.114 8.54548 112.088C8.90841 115.944 9.09596 119.294 8.931 121.312C8.94211 121.339 8.95558 121.371 8.97163 121.408C9.03739 121.557 9.1463 121.781 9.31245 122.06C9.6445 122.617 10.206 123.393 11.1113 124.228C12.9001 125.878 16.0658 127.789 21.5405 128.657C21.6102 128.636 21.7045 128.606 21.8209 128.568C22.0941 128.48 22.4884 128.349 22.9692 128.179C23.9318 127.837 25.2366 127.34 26.6089 126.713C27.9838 126.085 29.4113 125.335 30.6268 124.492C31.802 123.677 32.7272 122.811 33.2393 121.929L34.7311 104.176L35.3841 104.227L35.3866 104.227L35.3962 104.228L35.4365 104.23C35.4726 104.233 35.5271 104.237 35.599 104.241C35.7428 104.25 35.9563 104.262 36.2316 104.275C36.7825 104.3 37.5807 104.327 38.565 104.333C40.5348 104.345 43.2441 104.274 46.2046 103.94C52.1707 103.267 58.9749 101.547 62.9086 97.4791L63.2092 97.1683L63.5653 97.3017C63.5896 97.3041 63.6351 97.3072 63.7074 97.3073C63.9056 97.3073 64.2829 97.2839 64.9371 97.1723C66.138 96.9674 68.2284 96.4732 71.7836 95.325C72.0759 95.2 72.338 95.1147 72.5292 95.06C72.6266 95.0322 72.7065 95.012 72.7638 94.9985C72.7925 94.9917 72.8155 94.9866 72.8324 94.983L72.8529 94.9787L72.8596 94.9773L72.8619 94.9768L72.8629 94.9767C72.8633 94.9766 72.8637 94.9765 72.9906 95.6204L72.8637 94.9765L73.1988 96.2429C72.8724 96.3512 72.5566 96.4547 72.2512 96.5535C71.7799 96.7616 71.2834 97.0722 70.9659 97.5068C70.6643 97.9198 70.4823 98.4981 70.7447 99.3701C71.0186 100.281 71.7832 101.521 73.452 103.153C75.0125 104.678 77.9086 105.783 81.5246 106.543C85.1077 107.296 89.272 107.687 93.2459 107.871C97.2161 108.055 100.977 108.032 103.747 107.962C105.131 107.928 106.267 107.882 107.056 107.844C107.284 107.833 107.483 107.823 107.651 107.814L105.966 41.4081C105.954 41.3757 105.939 41.337 105.922 41.2923C105.867 41.1463 105.791 40.936 105.705 40.6735C105.534 40.1494 105.322 39.4124 105.161 38.5584C104.842 36.8718 104.699 34.6303 105.552 32.6746C105.89 31.9014 106.061 30.7848 106.103 29.4861C106.145 28.2017 106.061 26.8004 105.927 25.4945C105.793 24.1908 105.611 22.9946 105.462 22.1238C105.388 21.6888 105.322 21.3358 105.275 21.0924C105.262 21.0247 105.25 20.9656 105.24 20.9155Z" fill="#8A972D"/>
<path fill-rule="evenodd" clip-rule="evenodd" d="M29 55.2639C29 55.2639 28.9999 55.2635 29.629 55.1315C30.2581 54.9995 30.2582 55 30.2582 55L30.2829 55.1213C30.2992 55.2014 30.3233 55.3202 30.3547 55.4754C30.4174 55.7858 30.509 56.2416 30.6247 56.824C30.8562 57.9887 31.1843 59.6595 31.5709 61.685C32.3439 65.7356 33.3513 71.2062 34.2878 76.8839C35.2239 82.5595 36.0909 88.4515 36.5816 93.3417C36.8269 95.786 36.9794 97.991 36.998 99.799C37.0164 101.581 36.9075 103.06 36.5832 104L35.37 103.571C35.6133 102.866 35.7315 101.591 35.7132 99.8126C35.6951 98.0601 35.5467 95.8986 35.3033 93.4731C34.8167 88.6237 33.9549 82.7634 33.0204 77.098C32.0862 71.4347 31.081 65.9756 30.3092 61.9317C29.9234 59.9099 29.5959 58.2423 29.365 57.0804C29.2495 56.4995 29.1582 56.045 29.0958 55.7358C29.0646 55.5812 29.0406 55.463 29.0244 55.3835L29 55.2639Z" fill="#8A972D"/>
<path fill-rule="evenodd" clip-rule="evenodd" d="M95.3061 57.0853C94.518 58.8183 93.9835 60.3751 93.8772 61.5275C93.6438 64.0575 93.3299 67.1328 92.5383 70.1406C91.747 73.1475 90.4662 76.1367 88.2651 78.4698C86.3357 80.5149 84.195 81.2865 82.5886 81.8655C82.3422 81.9543 82.1084 82.0386 81.8898 82.1223C81.0377 82.4484 80.5059 82.7311 80.1994 83.124C79.9237 83.4775 79.7496 84.034 79.9391 85.1215C80.3603 87.5393 80.3672 89.0977 80.2548 90.0754C80.1985 90.5654 80.1119 90.9128 80.0304 91.1511C79.9897 91.2699 79.9504 91.3616 79.9167 91.4301C79.4105 93.8237 77.6225 94.9699 76.0566 95.5032C75.2633 95.7734 74.5048 95.8964 73.9481 95.9526C73.6685 95.9809 73.4365 95.9926 73.2723 95.9972C73.1901 95.9995 73.1246 96.0001 73.0784 96C73.0552 96 73.0369 95.9998 73.0237 95.9996L73.0076 95.9993L73.0008 95.9991L73.0001 95.9991C72.9998 95.9991 72.9995 95.9991 73.0182 95.3478C73.0369 94.6965 73.0367 94.6965 73.0365 94.6965L73.044 94.6967C73.0514 94.6968 73.0637 94.6969 73.0806 94.6969C73.1144 94.697 73.1666 94.6966 73.2347 94.6947C73.3711 94.6909 73.5704 94.6809 73.8136 94.6564C74.3025 94.607 74.9554 94.4998 75.6256 94.2715C76.9652 93.8153 78.2846 92.9161 78.6395 91.086L78.6646 90.9566L78.7264 90.8651C78.7269 90.8642 78.7273 90.8633 78.7278 90.8623C78.7361 90.8454 78.7549 90.8044 78.7788 90.7345C78.8266 90.5946 78.8952 90.3389 78.9423 89.9286C79.0369 89.106 79.0438 87.6761 78.6372 85.3421C78.4128 84.0537 78.569 83.0775 79.1525 82.3294C79.7054 81.6206 80.5619 81.2328 81.4121 80.9074C81.6545 80.8147 81.9043 80.724 82.1601 80.6312C83.7628 80.0496 85.5987 79.3835 87.2982 77.5821C89.2932 75.4674 90.498 72.7079 91.2598 69.8132C92.0214 66.9192 92.3283 63.9396 92.5617 61.4095C92.6888 60.0318 93.3007 58.3114 94.101 56.5519C94.9083 54.7768 95.9359 52.901 96.9427 51.1947C97.9505 49.4867 98.9427 47.9393 99.6827 46.8193C100.053 46.2591 100.36 45.8052 100.575 45.4909C100.683 45.3338 100.768 45.2115 100.825 45.1283C100.854 45.0866 100.877 45.0548 100.892 45.0332L100.909 45.0086L100.915 45C100.915 44.9999 100.915 44.9998 101.458 45.3715L102 45.7432L101.999 45.7448L101.979 45.7734C101.965 45.7939 101.943 45.8246 101.915 45.865C101.859 45.9459 101.776 46.0657 101.67 46.2203C101.458 46.5294 101.155 46.9773 100.789 47.5308C100.058 48.6383 99.0778 50.1664 98.0844 51.8502C97.0899 53.5355 96.0872 55.3678 95.3061 57.0853Z" fill="#8A972D"/>
</svg>
