<svg width="30" height="30" viewBox="0 0 30 30" fill="none" xmlns="http://www.w3.org/2000/svg">
<path d="M17.4188 29.8049C17.2938 29.8258 17.1684 29.845 17.0425 29.8626C17.1684 29.845 17.2938 29.8258 17.4188 29.8049Z" fill="#C4C4C4"/>
<path d="M17.7188 29.7533C17.659 29.7647 17.5993 29.7752 17.5396 29.7859C17.5993 29.7752 17.659 29.7647 17.7188 29.7533Z" fill="#C4C4C4"/>
<path d="M16.7072 29.9025C16.5609 29.919 16.4137 29.9337 16.2661 29.9461C16.4137 29.9337 16.5609 29.919 16.7072 29.9025Z" fill="#C4C4C4"/>
<path d="M16.9952 29.8676C16.9249 29.8772 16.8542 29.8862 16.7837 29.8946C16.8542 29.8862 16.9249 29.8772 16.9952 29.8676Z" fill="#C4C4C4"/>
<path d="M18.1271 29.6727C18.0745 29.684 18.0216 29.6953 17.9688 29.7062C18.0216 29.6953 18.0745 29.684 18.1271 29.6727Z" fill="#C4C4C4"/>
<path d="M19.1404 29.4205C19.0978 29.433 19.0553 29.4447 19.0127 29.4569C19.0553 29.4447 19.0978 29.433 19.1404 29.4205Z" fill="#C4C4C4"/>
<path d="M18.834 29.5046C18.7878 29.5171 18.7413 29.5299 18.6948 29.5419C18.7413 29.5299 18.7878 29.5174 18.834 29.5046Z" fill="#C4C4C4"/>
<path d="M18.433 29.6047C18.384 29.6161 18.3346 29.6269 18.2852 29.6378C18.3346 29.6269 18.384 29.6161 18.433 29.6047Z" fill="#C4C4C4"/>
<path d="M16.2615 29.9464C16.1826 29.9534 16.1036 29.9596 16.0244 29.9651C16.1036 29.9596 16.1826 29.9534 16.2615 29.9464Z" fill="#C4C4C4"/>
<path d="M30 15C30 6.717 23.283 0 15 0C6.717 0 0 6.717 0 15C0 23.283 6.717 30 15 30C15.0881 30 15.1758 29.9982 15.2637 29.9966V18.3197H12.041V14.564H15.2637V11.8002C15.2637 8.59497 17.2204 6.85043 20.0796 6.85043C21.4487 6.85043 22.6257 6.95251 22.9688 6.99806V10.348H20.9972C19.4417 10.348 19.1405 11.0873 19.1405 12.1719V14.564H22.8598L22.375 18.3197H19.1405V29.4205C25.4102 27.6231 30 21.8468 30 15Z" fill="#C4C4C4"/>
<path d="M15.9911 29.9666C15.835 29.9771 15.6782 29.9854 15.521 29.9909C15.6782 29.9854 15.835 29.9771 15.9911 29.9666Z" fill="#C4C4C4"/>
<path d="M15.5127 29.99C15.4298 29.9927 15.3468 29.9948 15.2637 29.9961C15.3468 29.9948 15.4298 29.9927 15.5127 29.99Z" fill="#C4C4C4"/>
</svg>
