<svg width="30" height="30" viewBox="0 0 30 30" fill="none" xmlns="http://www.w3.org/2000/svg">
<path d="M18.0002 7.5C14.9626 7.5 12.5002 9.9624 12.5002 13C12.5002 9.9624 10.0378 7.5 7.00024 7.5C3.96265 7.5 1.50024 9.9624 1.50024 13C1.50024 16.0374 9.46265 26.5 12.5002 26.5C15.5376 26.5 23.5002 16.0374 23.5002 13C23.5002 9.9624 21.0378 7.5 18.0002 7.5Z" fill="#EB3936"/>
<path d="M27.0002 0.5V3H29.5002L26.5002 6H24.0002V3.5L27.0002 0.5Z" fill="#B09DDA"/>
<path d="M2.50024 24.5L5.50024 27.5L0.500244 29.5L2.50024 24.5Z" fill="#B09DDA"/>
<path d="M0.499667 29.9999C0.563144 29.9999 0.626132 29.9879 0.685214 29.9642L5.6852 27.9642C5.84121 27.902 5.95571 27.7653 5.9894 27.6005C6.02334 27.4359 5.97207 27.2653 5.85317 27.1464L4.70669 25.9999L7.34316 23.3634C9.29261 25.4569 11.2496 26.9999 12.4996 26.9999C15.7865 26.9999 23.9996 16.3097 23.9996 12.9999C23.9989 11.3373 23.3058 9.75018 22.0865 8.61981L24.2066 6.49995H26.4996C26.6322 6.49995 26.7594 6.44721 26.8531 6.35346L29.8531 3.35348C29.9959 3.21041 30.0387 2.99532 29.9613 2.80856C29.8841 2.62179 29.7017 2.49996 29.4996 2.49996H27.4996V0.499969C27.4996 0.297822 27.3778 0.115449 27.1908 0.0380569C27.004 -0.0393354 26.7892 0.003389 26.6461 0.146455L23.6461 3.14644C23.5523 3.24019 23.4996 3.36739 23.4996 3.49996V5.79292L21.2997 7.99286C19.8224 7.0163 17.9891 6.74287 16.2914 7.24628C14.5936 7.74994 13.2054 8.97846 12.4996 10.6025C11.3639 7.9975 8.55678 6.54658 5.77504 7.12665C2.99331 7.70649 0.99991 10.1584 0.999666 12.9999C0.999666 14.9084 3.73062 19.2677 6.6725 22.6198L3.99966 25.2929L2.85318 24.1464C2.73428 24.0275 2.56363 23.9762 2.39883 24.0099C2.23404 24.0438 2.09756 24.1581 2.03506 24.3143L0.035069 29.3143C-0.0264542 29.4684 -0.00765546 29.6429 0.085606 29.7804C0.178623 29.9176 0.333652 29.9999 0.499667 29.9999ZM27.2066 3.49996H28.2926L26.2926 5.49995H25.2066L27.2066 3.49996ZM24.4996 3.70699L26.4996 1.707V2.79293L24.4996 4.79292V3.70699ZM1.99966 12.9999C1.99966 10.2385 4.23818 7.99994 6.99965 7.99994C9.76112 7.99994 11.9996 10.2385 11.9996 12.9999V13.3927C11.9996 13.6691 12.2235 13.8927 12.4996 13.8927C12.7758 13.8927 12.9996 13.6691 12.9996 13.3927V12.9999C12.9957 11.197 13.9647 9.53241 15.5343 8.64545C17.1036 7.75849 19.0296 7.78705 20.5721 8.7204L17.1461 12.1464C17.016 12.2719 16.964 12.4577 17.0096 12.6325C17.0555 12.8075 17.192 12.944 17.3668 12.9897C17.5416 13.0356 17.7274 12.9833 17.8531 12.8534L21.38 9.32635C22.411 10.2697 22.9986 11.6025 22.9996 12.9999C22.9996 15.717 15.1996 25.9999 12.4996 25.9999C9.79969 25.9999 1.99966 15.717 1.99966 12.9999ZM2.68204 25.3893L4.61001 27.3173L1.39957 28.6024L2.68204 25.3893Z" fill="black"/>
</svg>
