<svg width="28" height="24" viewBox="0 0 28 24" fill="none" xmlns="http://www.w3.org/2000/svg">
<path d="M26.6 0H23.8C23.438 0.000462967 23.0903 0.144946 22.8296 0.403192C22.5689 0.661438 22.4154 1.01342 22.4013 1.38541L21.5508 5.75956H0.466688C0.397641 5.75955 0.329455 5.77531 0.267044 5.80569C0.204634 5.83606 0.149555 5.8803 0.105779 5.93522C0.0620034 5.99014 0.0306218 6.05436 0.0138971 6.12326C-0.00282759 6.19216 -0.00447853 6.26402 0.0090632 6.33365L1.87573 15.9329C1.89689 16.0417 1.95405 16.1396 2.03748 16.21C2.12091 16.2803 2.22547 16.3187 2.33335 16.3187H20.0667C20.3142 16.3187 20.5516 16.4199 20.7266 16.5999C20.9017 16.7799 21 17.0241 21 17.2787C21 17.5333 20.9017 17.7774 20.7266 17.9574C20.5516 18.1375 20.3142 18.2386 20.0667 18.2386H2.33335C2.20959 18.2386 2.09089 18.2892 2.00337 18.3792C1.91585 18.4692 1.86669 18.5913 1.86669 18.7186V20.6384C1.86669 20.7657 1.91585 20.8878 2.00337 20.9778C2.09089 21.0678 2.20959 21.1184 2.33335 21.1184H3.05114C2.88691 21.4102 2.80029 21.7414 2.80002 22.0785C2.79975 22.4157 2.88582 22.747 3.04959 23.0391C3.21335 23.3313 3.44903 23.5738 3.7329 23.7425C4.01678 23.9112 4.33884 24 4.66668 24C4.99453 24 5.31659 23.9112 5.60047 23.7425C5.88434 23.5738 6.12002 23.3313 6.28378 23.0391C6.44755 22.747 6.53362 22.4157 6.53335 22.0785C6.53308 21.7414 6.44646 21.4102 6.28223 21.1184H16.1178C15.9536 21.4102 15.8669 21.7414 15.8667 22.0785C15.8664 22.4157 15.9525 22.747 16.1162 23.0391C16.28 23.3313 16.5157 23.5738 16.7996 23.7425C17.0834 23.9112 17.4055 24 17.7333 24C18.0612 24 18.3832 23.9112 18.6671 23.7425C18.951 23.5738 19.1867 23.3313 19.3504 23.0391C19.5142 22.747 19.6003 22.4157 19.6 22.0785C19.5997 21.7414 19.5131 21.4102 19.3489 21.1184H20.0667C20.1904 21.1184 20.3091 21.0678 20.3967 20.9778C20.4842 20.8878 20.5333 20.7657 20.5333 20.6384V19.1377C20.9268 19.0334 21.2763 18.7999 21.529 18.4727C21.7817 18.1454 21.9236 17.7424 21.9333 17.3246C21.943 16.9069 21.82 16.4973 21.5828 16.158C21.3456 15.8187 21.0073 15.5683 20.6192 15.4447L22.391 6.33365L23.1 2.68617C23.3126 2.81321 23.5541 2.88002 23.8 2.87978H26.6C26.9713 2.87978 27.3274 2.72808 27.59 2.45804C27.8525 2.18801 28 1.82177 28 1.43989C28 1.05801 27.8525 0.691765 27.59 0.421734C27.3274 0.151702 26.9713 0 26.6 0ZM5.60002 22.0783C5.60002 22.2682 5.54528 22.4537 5.44272 22.6116C5.34017 22.7695 5.1944 22.8925 5.02386 22.9652C4.85331 23.0378 4.66565 23.0568 4.4846 23.0198C4.30355 22.9827 4.13725 22.8913 4.00672 22.7571C3.87619 22.6228 3.7873 22.4518 3.75129 22.2656C3.71527 22.0794 3.73376 21.8864 3.8044 21.711C3.87504 21.5355 3.99467 21.3856 4.14815 21.2801C4.30164 21.1747 4.48209 21.1184 4.66668 21.1184C4.91413 21.1187 5.15136 21.2199 5.32633 21.3999C5.5013 21.5798 5.59972 21.8238 5.60002 22.0783ZM18.6667 22.0783C18.6667 22.2682 18.6119 22.4537 18.5094 22.6116C18.4068 22.7695 18.2611 22.8925 18.0905 22.9652C17.92 23.0378 17.7323 23.0568 17.5513 23.0198C17.3702 22.9827 17.2039 22.8913 17.0734 22.7571C16.9428 22.6228 16.854 22.4518 16.8179 22.2656C16.7819 22.0794 16.8004 21.8864 16.8711 21.711C16.9417 21.5355 17.0613 21.3856 17.2148 21.2801C17.3683 21.1747 17.5487 21.1184 17.7333 21.1184C17.9808 21.1187 18.218 21.2199 18.393 21.3999C18.568 21.5798 18.6664 21.8238 18.6667 22.0783ZM19.6 20.1584H2.80002V19.1985H19.6V20.1584ZM8.60943 10.5592H5.30193L4.74193 6.71948H8.42276L8.60943 10.5592ZM9.35726 6.71948H13.0428L12.8561 10.5592H9.54393L9.35726 6.71948ZM8.6561 11.5191L8.84276 15.3588H6.00193L5.44193 11.5191H8.6561ZM9.5906 11.5191H12.8094L12.6228 15.3588H9.77726L9.5906 11.5191ZM13.7439 11.5191H16.9581L16.3981 15.3588H13.5573L13.7439 11.5191ZM13.7906 10.5592L13.9773 6.71948H17.6581L17.0981 10.5592H13.7906ZM3.7981 6.71948L4.3581 10.5592H1.78257L1.0359 6.71948H3.7981ZM1.9693 11.5191H4.4981L5.0581 15.3588H2.71596L1.9693 11.5191ZM19.6841 15.3588H17.3419L17.9019 11.5191H20.4307L19.6841 15.3588ZM20.6174 10.5592H18.0419L18.6019 6.71948H21.3641L20.6174 10.5592ZM26.6 1.91985H23.8C23.6762 1.91985 23.5575 1.86928 23.47 1.77927C23.3825 1.68926 23.3333 1.56718 23.3333 1.43989C23.3333 1.3126 23.3825 1.19051 23.47 1.1005C23.5575 1.01049 23.6762 0.959926 23.8 0.959926H26.6C26.7238 0.959926 26.8425 1.01049 26.93 1.1005C27.0175 1.19051 27.0667 1.3126 27.0667 1.43989C27.0667 1.56718 27.0175 1.68926 26.93 1.77927C26.8425 1.86928 26.7238 1.91985 26.6 1.91985Z" fill="black"/>
</svg>
